<svg width="16" height="16" viewBox="0 0 16 16" fill="none" xmlns="http://www.w3.org/2000/svg">
    <g id="pencil" clip-path="url(#clip0_5661_2856)">
        <path d="M12.6667 13.3333H3.33332C3.15651 13.3333 2.98694 13.4035 2.86192 13.5285C2.73689 13.6535 2.66666 13.8231 2.66666 13.9999C2.66666 14.1767 2.73689 14.3463 2.86192 14.4713C2.98694 14.5963 3.15651 14.6666 3.33332 14.6666H12.6667C12.8435 14.6666 13.013 14.5963 13.1381 14.4713C13.2631 14.3463 13.3333 14.1767 13.3333 13.9999C13.3333 13.8231 13.2631 13.6535 13.1381 13.5285C13.013 13.4035 12.8435 13.3333 12.6667 13.3333Z" fill="white"/>
        <path d="M3.33335 12H3.39335L6.17335 11.7467C6.47788 11.7163 6.7627 11.5821 6.98001 11.3667L12.98 5.36665C13.2129 5.12063 13.3387 4.79233 13.33 4.45368C13.3213 4.11503 13.1786 3.79366 12.9333 3.55999L11.1067 1.73332C10.8683 1.50938 10.5559 1.38089 10.2289 1.37229C9.90193 1.36368 9.5832 1.47557 9.33335 1.68665L3.33335 7.68665C3.11786 7.90396 2.98368 8.18879 2.95335 8.49332L2.66668 11.2733C2.6577 11.371 2.67037 11.4694 2.70379 11.5616C2.73721 11.6538 2.79055 11.7374 2.86001 11.8067C2.92231 11.8684 2.99619 11.9173 3.07741 11.9505C3.15864 11.9837 3.24561 12.0005 3.33335 12ZM10.18 2.66665L12 4.48665L10.6667 5.78665L8.88001 3.99999L10.18 2.66665ZM4.24668 8.60665L8.00001 4.87999L9.80001 6.67999L6.06668 10.4133L4.06668 10.6L4.24668 8.60665Z" fill="white"/>
    </g>
    <defs>
        <clipPath id="clip0_5661_2856">
            <rect width="16" height="16" fill="white"/>
        </clipPath>
    </defs>

    <g id="player">
        <g clip-path="url(#clip0_5928_2696)">
            <path d="M8.00001 1.33325C6.68147 1.33325 5.39254 1.72425 4.29621 2.45679C3.19988 3.18933 2.3454 4.23052 1.84082 5.4487C1.33623 6.66687 1.20421 8.00731 1.46144 9.30052C1.71868 10.5937 2.35362 11.7816 3.28597 12.714C4.21832 13.6463 5.4062 14.2813 6.69941 14.5385C7.99262 14.7957 9.33306 14.6637 10.5512 14.1591C11.7694 13.6545 12.8106 12.8 13.5431 11.7037C14.2757 10.6074 14.6667 9.31846 14.6667 7.99992C14.6667 7.12444 14.4942 6.25753 14.1592 5.4487C13.8242 4.63986 13.3331 3.90493 12.7141 3.28587C12.095 2.66682 11.3601 2.17575 10.5512 1.84072C9.7424 1.50569 8.87549 1.33325 8.00001 1.33325ZM8.00001 13.3333C6.94518 13.3333 5.91403 13.0205 5.03697 12.4344C4.15991 11.8484 3.47632 11.0154 3.07266 10.0409C2.66899 9.06636 2.56337 7.994 2.76916 6.95944C2.97495 5.92487 3.4829 4.97456 4.22878 4.22868C4.97466 3.4828 5.92497 2.97485 6.95953 2.76906C7.9941 2.56328 9.06645 2.66889 10.041 3.07256C11.0155 3.47623 11.8485 4.15982 12.4345 5.03688C13.0206 5.91394 13.3333 6.94509 13.3333 7.99992C13.3333 9.41441 12.7714 10.771 11.7712 11.7712C10.7711 12.7713 9.4145 13.3333 8.00001 13.3333Z" fill="white"/>
            <path d="M8.22666 4.96667C8.06331 4.81613 7.85932 4.71692 7.64004 4.68136C7.42077 4.6458 7.19588 4.67547 6.99333 4.76667C6.7967 4.84621 6.62825 4.98257 6.5095 5.15832C6.39075 5.33407 6.32709 5.54123 6.32666 5.75334V10.2467C6.32709 10.4588 6.39075 10.6659 6.5095 10.8417C6.62825 11.0174 6.7967 11.1538 6.99333 11.2333C7.13784 11.2989 7.29464 11.333 7.45333 11.3333C7.73927 11.3321 8.01467 11.2252 8.22666 11.0333L10.6667 8.78667C10.7758 8.68674 10.8629 8.56519 10.9226 8.42976C10.9822 8.29433 11.013 8.14798 11.013 8C11.013 7.85203 10.9822 7.70568 10.9226 7.57025C10.8629 7.43482 10.7758 7.31327 10.6667 7.21334L8.22666 4.96667ZM7.66666 9.73334V6.26667L9.53999 8L7.66666 9.73334Z" fill="white"/>
        </g>
        <defs>
            <clipPath id="clip0_5928_2696">
                <rect width="16" height="16" fill="white"/>
            </clipPath>
        </defs>
    </g>

    <g id="starYellow">
        <path d="M10.7067 13C10.6 13.0004 10.4949 12.9753 10.4 12.9266L6.99999 11.1466L3.59999 12.9266C3.48959 12.9847 3.36511 13.0106 3.24071 13.0014C3.11631 12.9923 2.99698 12.9484 2.89628 12.8748C2.79558 12.8012 2.71755 12.7008 2.67107 12.585C2.62459 12.4693 2.61151 12.3428 2.63333 12.22L3.29999 8.46664L0.553328 5.79997C0.467633 5.71446 0.406842 5.60722 0.377479 5.48977C0.348117 5.37232 0.351291 5.24909 0.386661 5.13331C0.425301 5.01482 0.496379 4.90954 0.591828 4.82941C0.687277 4.74928 0.803276 4.69751 0.926661 4.67997L4.72666 4.12664L6.39999 0.70664C6.45458 0.593926 6.53982 0.498868 6.64594 0.432356C6.75205 0.365843 6.87476 0.330566 6.99999 0.330566C7.12523 0.330566 7.24794 0.365843 7.35405 0.432356C7.46017 0.498868 7.5454 0.593926 7.59999 0.70664L9.29333 4.11997L13.0933 4.67331C13.2167 4.69084 13.3327 4.74262 13.4282 4.82275C13.5236 4.90288 13.5947 5.00816 13.6333 5.12664C13.6687 5.24242 13.6719 5.36565 13.6425 5.4831C13.6131 5.60055 13.5524 5.70779 13.4667 5.79331L10.72 8.45997L11.3867 12.2133C11.4105 12.3383 11.398 12.4675 11.3507 12.5856C11.3035 12.7037 11.2234 12.8059 11.12 12.88C10.9993 12.9646 10.8539 13.0068 10.7067 13Z" fill="#E6AC39"/>
    </g>

    <g id="starOutline">
        <g clip-path="url(#clip0_5928_5109)">
            <path d="M11.7067 14C11.6 14.0004 11.4949 13.9753 11.4 13.9266L7.99999 12.1466L4.59999 13.9266C4.48959 13.9847 4.36511 14.0106 4.24071 14.0014C4.11631 13.9923 3.99698 13.9484 3.89628 13.8748C3.79558 13.8012 3.71755 13.7008 3.67107 13.585C3.62459 13.4693 3.61151 13.3428 3.63333 13.22L4.29999 9.46664L1.55333 6.79997C1.46763 6.71446 1.40684 6.60722 1.37748 6.48977C1.34812 6.37232 1.35129 6.24909 1.38666 6.13331C1.4253 6.01482 1.49638 5.90954 1.59183 5.82941C1.68728 5.74928 1.80328 5.69751 1.92666 5.67997L5.72666 5.12664L7.39999 1.70664C7.45458 1.59393 7.53982 1.49887 7.64594 1.43236C7.75205 1.36584 7.87476 1.33057 7.99999 1.33057C8.12523 1.33057 8.24794 1.36584 8.35405 1.43236C8.46017 1.49887 8.5454 1.59393 8.59999 1.70664L10.2933 5.11997L14.0933 5.67331C14.2167 5.69084 14.3327 5.74262 14.4282 5.82275C14.5236 5.90288 14.5947 6.00816 14.6333 6.12664C14.6687 6.24242 14.6719 6.36565 14.6425 6.4831C14.6131 6.60055 14.5524 6.70779 14.4667 6.79331L11.72 9.45997L12.3867 13.2133C12.4105 13.3383 12.398 13.4675 12.3507 13.5856C12.3035 13.7037 12.2234 13.8059 12.12 13.88C11.9993 13.9646 11.8539 14.0068 11.7067 14ZM7.99999 10.7333C8.10686 10.7306 8.21258 10.7559 8.30666 10.8066L10.82 12.14L10.34 9.33331C10.3214 9.22614 10.3293 9.11604 10.363 9.01262C10.3967 8.9092 10.4551 8.8156 10.5333 8.73997L12.5333 6.78664L9.73333 6.37331C9.63065 6.35263 9.53429 6.30806 9.45205 6.2432C9.36982 6.17834 9.30402 6.09501 9.25999 5.99997L7.99999 3.49997L6.73999 5.99997C6.69176 6.09578 6.62112 6.17853 6.53408 6.2412C6.44703 6.30387 6.34615 6.34462 6.23999 6.35997L3.43999 6.77331L5.43999 8.72664C5.51818 8.80226 5.57667 8.89587 5.61037 8.99929C5.64407 9.10271 5.65195 9.21281 5.63333 9.31997L5.15333 12.0933L7.66666 10.76C7.77316 10.7204 7.88856 10.7112 7.99999 10.7333Z" fill="#E6AC39"/>
        </g>
        <defs>
            <clipPath id="clip0_5928_5109">
                <rect width="16" height="16" fill="white"/>
            </clipPath>
        </defs>
    </g>

    <g id="trashDelete">
        <g clip-path="url(#clip0_5661_2857)">
            <path d="M14 4.00011H10.6667V2.88677C10.651 2.45998 10.4668 2.05681 10.1544 1.76563C9.84197 1.47446 9.42684 1.31903 9.00001 1.33344H7.00001C6.57318 1.31903 6.15805 1.47446 5.84563 1.76563C5.53321 2.05681 5.34898 2.45998 5.33334 2.88677V4.00011H2.00001C1.8232 4.00011 1.65363 4.07034 1.52861 4.19537C1.40358 4.32039 1.33334 4.48996 1.33334 4.66677C1.33334 4.84358 1.40358 5.01315 1.52861 5.13818C1.65363 5.2632 1.8232 5.33344 2.00001 5.33344H2.66668V12.6668C2.66668 13.1972 2.87739 13.7059 3.25246 14.081C3.62754 14.4561 4.13624 14.6668 4.66668 14.6668H11.3333C11.8638 14.6668 12.3725 14.4561 12.7476 14.081C13.1226 13.7059 13.3333 13.1972 13.3333 12.6668V5.33344H14C14.1768 5.33344 14.3464 5.2632 14.4714 5.13818C14.5964 5.01315 14.6667 4.84358 14.6667 4.66677C14.6667 4.48996 14.5964 4.32039 14.4714 4.19537C14.3464 4.07034 14.1768 4.00011 14 4.00011ZM6.66668 2.88677C6.66668 2.78011 6.80668 2.66677 7.00001 2.66677H9.00001C9.19334 2.66677 9.33334 2.78011 9.33334 2.88677V4.00011H6.66668V2.88677ZM12 12.6668C12 12.8436 11.9298 13.0132 11.8047 13.1382C11.6797 13.2632 11.5102 13.3334 11.3333 13.3334H4.66668C4.48987 13.3334 4.3203 13.2632 4.19527 13.1382C4.07025 13.0132 4.00001 12.8436 4.00001 12.6668V5.33344H12V12.6668Z" fill="white"/>
        </g>
        <defs>
            <clipPath id="clip0_5661_2857">
                <rect width="16" height="16" fill="white"/>
            </clipPath>
        </defs>
    </g>
    <g id="openedEye">
        <g clip-path="url(#clip0_5661_2355)" >
            <path d="M18.225 9.58334C17.6917 8.65834 14.7583 4.01667 9.775 4.16667C5.16667 4.28334 2.5 8.33334 1.775 9.58334C1.70186 9.71002 1.66335 9.85372 1.66335 10C1.66335 10.1463 1.70186 10.29 1.775 10.4167C2.3 11.325 5.10833 15.8333 10.0167 15.8333H10.225C14.8333 15.7167 17.5083 11.6667 18.225 10.4167C18.2981 10.29 18.3366 10.1463 18.3366 10C18.3366 9.85372 18.2981 9.71002 18.225 9.58334ZM10.1833 14.1667C6.59167 14.25 4.25 11.175 3.51667 10C4.35 8.65834 6.525 5.91667 9.85833 5.83334C13.4333 5.74167 15.7833 8.82501 16.525 10C15.6667 11.3417 13.5167 14.0833 10.1833 14.1667Z" fill="currentColor"/>
            <path d="M10 7.08334C9.42314 7.08334 8.85923 7.2544 8.37959 7.57489C7.89994 7.89538 7.52611 8.3509 7.30535 8.88385C7.0846 9.4168 7.02684 10.0032 7.13938 10.569C7.25192 11.1348 7.5297 11.6545 7.93761 12.0624C8.34551 12.4703 8.86521 12.7481 9.43099 12.8606C9.99676 12.9732 10.5832 12.9154 11.1162 12.6947C11.6491 12.4739 12.1046 12.1001 12.4251 11.6204C12.7456 11.1408 12.9167 10.5769 12.9167 10C12.9167 9.22646 12.6094 8.4846 12.0624 7.93762C11.5154 7.39063 10.7735 7.08334 10 7.08334ZM10 11.25C9.75277 11.25 9.5111 11.1767 9.30554 11.0393C9.09998 10.902 8.93976 10.7068 8.84515 10.4784C8.75054 10.25 8.72579 9.99862 8.77402 9.75615C8.82225 9.51367 8.9413 9.29094 9.11612 9.11613C9.29093 8.94131 9.51366 8.82226 9.75614 8.77403C9.99861 8.7258 10.2499 8.75055 10.4784 8.84516C10.7068 8.93977 10.902 9.09999 11.0393 9.30555C11.1767 9.51111 11.25 9.75278 11.25 10C11.25 10.3315 11.1183 10.6495 10.8839 10.8839C10.6495 11.1183 10.3315 11.25 10 11.25Z" fill="currentColor" />
        </g>
        <defs>
            <clipPath id="clip0_5661_2355">
                <rect width="20" height="20" fill="white"/>
            </clipPath>
        </defs>
    </g>
    <g id="search">
        <svg width="16" height="16" viewBox="0 0 16 16" fill="currentColor" xmlns="http://www.w3.org/2000/svg">
            <path d="M15.2583 14.075L12.425 11.25C13.3392 10.0854 13.8352 8.64721 13.8333 7.16667C13.8333 5.84813 13.4423 4.5592 12.7098 3.46287C11.9773 2.36654 10.9361 1.51206 9.71789 1.00747C8.49972 0.502889 7.15927 0.370866 5.86607 0.628101C4.57286 0.885336 3.38497 1.52027 2.45262 2.45262C1.52027 3.38497 0.885336 4.57286 0.628101 5.86607C0.370866 7.15927 0.502889 8.49972 1.00747 9.71789C1.51206 10.9361 2.36654 11.9773 3.46287 12.7098C4.5592 13.4423 5.84813 13.8333 7.16667 13.8333C8.64721 13.8352 10.0854 13.3392 11.25 12.425L14.075 15.2583C14.1525 15.3364 14.2446 15.3984 14.3462 15.4407C14.4477 15.4831 14.5567 15.5048 14.6667 15.5048C14.7767 15.5048 14.8856 15.4831 14.9871 15.4407C15.0887 15.3984 15.1809 15.3364 15.2583 15.2583C15.3364 15.1809 15.3984 15.0887 15.4407 14.9871C15.4831 14.8856 15.5048 14.7767 15.5048 14.6667C15.5048 14.5567 15.4831 14.4477 15.4407 14.3462C15.3984 14.2446 15.3364 14.1525 15.2583 14.075ZM2.16667 7.16667C2.16667 6.17776 2.45991 5.21106 3.00932 4.38882C3.55873 3.56657 4.33962 2.92571 5.25325 2.54727C6.16688 2.16883 7.17222 2.06982 8.14212 2.26274C9.11203 2.45567 10.0029 2.93187 10.7022 3.63114C11.4015 4.3304 11.8777 5.22131 12.0706 6.19122C12.2635 7.16112 12.1645 8.16646 11.7861 9.08009C11.4076 9.99372 10.7668 10.7746 9.94452 11.324C9.12227 11.8734 8.15558 12.1667 7.16667 12.1667C5.84059 12.1667 4.56882 11.6399 3.63114 10.7022C2.69345 9.76452 2.16667 8.49275 2.16667 7.16667Z" fill="currentColor"/>
        </svg>

    </g>

</svg>