<svg width="16" height="16" viewBox="0 0 16 16" fill="none" xmlns="http://www.w3.org/2000/svg">
    <g id="pencil" clip-path="url(#clip0_5661_2856)">
        <path d="M12.6667 13.3333H3.33332C3.15651 13.3333 2.98694 13.4035 2.86192 13.5285C2.73689 13.6535 2.66666 13.8231 2.66666 13.9999C2.66666 14.1767 2.73689 14.3463 2.86192 14.4713C2.98694 14.5963 3.15651 14.6666 3.33332 14.6666H12.6667C12.8435 14.6666 13.013 14.5963 13.1381 14.4713C13.2631 14.3463 13.3333 14.1767 13.3333 13.9999C13.3333 13.8231 13.2631 13.6535 13.1381 13.5285C13.013 13.4035 12.8435 13.3333 12.6667 13.3333Z"
              fill="white"/>
        <path d="M3.33335 12H3.39335L6.17335 11.7467C6.47788 11.7163 6.7627 11.5821 6.98001 11.3667L12.98 5.36665C13.2129 5.12063 13.3387 4.79233 13.33 4.45368C13.3213 4.11503 13.1786 3.79366 12.9333 3.55999L11.1067 1.73332C10.8683 1.50938 10.5559 1.38089 10.2289 1.37229C9.90193 1.36368 9.5832 1.47557 9.33335 1.68665L3.33335 7.68665C3.11786 7.90396 2.98368 8.18879 2.95335 8.49332L2.66668 11.2733C2.6577 11.371 2.67037 11.4694 2.70379 11.5616C2.73721 11.6538 2.79055 11.7374 2.86001 11.8067C2.92231 11.8684 2.99619 11.9173 3.07741 11.9505C3.15864 11.9837 3.24561 12.0005 3.33335 12ZM10.18 2.66665L12 4.48665L10.6667 5.78665L8.88001 3.99999L10.18 2.66665ZM4.24668 8.60665L8.00001 4.87999L9.80001 6.67999L6.06668 10.4133L4.06668 10.6L4.24668 8.60665Z"
              fill="white"/>
    </g>
    <defs>
        <clipPath id="clip0_5661_2856">
            <rect width="16" height="16" fill="white"/>
        </clipPath>
    </defs>

    <g id="player">
        <g clip-path="url(#clip0_5928_2696)">
            <path d="M8.00001 1.33325C6.68147 1.33325 5.39254 1.72425 4.29621 2.45679C3.19988 3.18933 2.3454 4.23052 1.84082 5.4487C1.33623 6.66687 1.20421 8.00731 1.46144 9.30052C1.71868 10.5937 2.35362 11.7816 3.28597 12.714C4.21832 13.6463 5.4062 14.2813 6.69941 14.5385C7.99262 14.7957 9.33306 14.6637 10.5512 14.1591C11.7694 13.6545 12.8106 12.8 13.5431 11.7037C14.2757 10.6074 14.6667 9.31846 14.6667 7.99992C14.6667 7.12444 14.4942 6.25753 14.1592 5.4487C13.8242 4.63986 13.3331 3.90493 12.7141 3.28587C12.095 2.66682 11.3601 2.17575 10.5512 1.84072C9.7424 1.50569 8.87549 1.33325 8.00001 1.33325ZM8.00001 13.3333C6.94518 13.3333 5.91403 13.0205 5.03697 12.4344C4.15991 11.8484 3.47632 11.0154 3.07266 10.0409C2.66899 9.06636 2.56337 7.994 2.76916 6.95944C2.97495 5.92487 3.4829 4.97456 4.22878 4.22868C4.97466 3.4828 5.92497 2.97485 6.95953 2.76906C7.9941 2.56328 9.06645 2.66889 10.041 3.07256C11.0155 3.47623 11.8485 4.15982 12.4345 5.03688C13.0206 5.91394 13.3333 6.94509 13.3333 7.99992C13.3333 9.41441 12.7714 10.771 11.7712 11.7712C10.7711 12.7713 9.4145 13.3333 8.00001 13.3333Z"
                  fill="white"/>
            <path d="M8.22666 4.96667C8.06331 4.81613 7.85932 4.71692 7.64004 4.68136C7.42077 4.6458 7.19588 4.67547 6.99333 4.76667C6.7967 4.84621 6.62825 4.98257 6.5095 5.15832C6.39075 5.33407 6.32709 5.54123 6.32666 5.75334V10.2467C6.32709 10.4588 6.39075 10.6659 6.5095 10.8417C6.62825 11.0174 6.7967 11.1538 6.99333 11.2333C7.13784 11.2989 7.29464 11.333 7.45333 11.3333C7.73927 11.3321 8.01467 11.2252 8.22666 11.0333L10.6667 8.78667C10.7758 8.68674 10.8629 8.56519 10.9226 8.42976C10.9822 8.29433 11.013 8.14798 11.013 8C11.013 7.85203 10.9822 7.70568 10.9226 7.57025C10.8629 7.43482 10.7758 7.31327 10.6667 7.21334L8.22666 4.96667ZM7.66666 9.73334V6.26667L9.53999 8L7.66666 9.73334Z"
                  fill="white"/>
        </g>
        <defs>
            <clipPath id="clip0_5928_2696">
                <rect width="16" height="16" fill="white"/>
            </clipPath>
        </defs>
    </g>

    <g id="starYellow">
        <path d="M10.7067 13C10.6 13.0004 10.4949 12.9753 10.4 12.9266L6.99999 11.1466L3.59999 12.9266C3.48959 12.9847 3.36511 13.0106 3.24071 13.0014C3.11631 12.9923 2.99698 12.9484 2.89628 12.8748C2.79558 12.8012 2.71755 12.7008 2.67107 12.585C2.62459 12.4693 2.61151 12.3428 2.63333 12.22L3.29999 8.46664L0.553328 5.79997C0.467633 5.71446 0.406842 5.60722 0.377479 5.48977C0.348117 5.37232 0.351291 5.24909 0.386661 5.13331C0.425301 5.01482 0.496379 4.90954 0.591828 4.82941C0.687277 4.74928 0.803276 4.69751 0.926661 4.67997L4.72666 4.12664L6.39999 0.70664C6.45458 0.593926 6.53982 0.498868 6.64594 0.432356C6.75205 0.365843 6.87476 0.330566 6.99999 0.330566C7.12523 0.330566 7.24794 0.365843 7.35405 0.432356C7.46017 0.498868 7.5454 0.593926 7.59999 0.70664L9.29333 4.11997L13.0933 4.67331C13.2167 4.69084 13.3327 4.74262 13.4282 4.82275C13.5236 4.90288 13.5947 5.00816 13.6333 5.12664C13.6687 5.24242 13.6719 5.36565 13.6425 5.4831C13.6131 5.60055 13.5524 5.70779 13.4667 5.79331L10.72 8.45997L11.3867 12.2133C11.4105 12.3383 11.398 12.4675 11.3507 12.5856C11.3035 12.7037 11.2234 12.8059 11.12 12.88C10.9993 12.9646 10.8539 13.0068 10.7067 13Z"
              fill="#E6AC39"/>
    </g>

    <g id="starOutline">
        <g clip-path="url(#clip0_5928_5109)">
            <path d="M11.7067 14C11.6 14.0004 11.4949 13.9753 11.4 13.9266L7.99999 12.1466L4.59999 13.9266C4.48959 13.9847 4.36511 14.0106 4.24071 14.0014C4.11631 13.9923 3.99698 13.9484 3.89628 13.8748C3.79558 13.8012 3.71755 13.7008 3.67107 13.585C3.62459 13.4693 3.61151 13.3428 3.63333 13.22L4.29999 9.46664L1.55333 6.79997C1.46763 6.71446 1.40684 6.60722 1.37748 6.48977C1.34812 6.37232 1.35129 6.24909 1.38666 6.13331C1.4253 6.01482 1.49638 5.90954 1.59183 5.82941C1.68728 5.74928 1.80328 5.69751 1.92666 5.67997L5.72666 5.12664L7.39999 1.70664C7.45458 1.59393 7.53982 1.49887 7.64594 1.43236C7.75205 1.36584 7.87476 1.33057 7.99999 1.33057C8.12523 1.33057 8.24794 1.36584 8.35405 1.43236C8.46017 1.49887 8.5454 1.59393 8.59999 1.70664L10.2933 5.11997L14.0933 5.67331C14.2167 5.69084 14.3327 5.74262 14.4282 5.82275C14.5236 5.90288 14.5947 6.00816 14.6333 6.12664C14.6687 6.24242 14.6719 6.36565 14.6425 6.4831C14.6131 6.60055 14.5524 6.70779 14.4667 6.79331L11.72 9.45997L12.3867 13.2133C12.4105 13.3383 12.398 13.4675 12.3507 13.5856C12.3035 13.7037 12.2234 13.8059 12.12 13.88C11.9993 13.9646 11.8539 14.0068 11.7067 14ZM7.99999 10.7333C8.10686 10.7306 8.21258 10.7559 8.30666 10.8066L10.82 12.14L10.34 9.33331C10.3214 9.22614 10.3293 9.11604 10.363 9.01262C10.3967 8.9092 10.4551 8.8156 10.5333 8.73997L12.5333 6.78664L9.73333 6.37331C9.63065 6.35263 9.53429 6.30806 9.45205 6.2432C9.36982 6.17834 9.30402 6.09501 9.25999 5.99997L7.99999 3.49997L6.73999 5.99997C6.69176 6.09578 6.62112 6.17853 6.53408 6.2412C6.44703 6.30387 6.34615 6.34462 6.23999 6.35997L3.43999 6.77331L5.43999 8.72664C5.51818 8.80226 5.57667 8.89587 5.61037 8.99929C5.64407 9.10271 5.65195 9.21281 5.63333 9.31997L5.15333 12.0933L7.66666 10.76C7.77316 10.7204 7.88856 10.7112 7.99999 10.7333Z"
                  fill="#E6AC39"/>
        </g>
        <defs>
            <clipPath id="clip0_5928_5109">
                <rect width="16" height="16" fill="white"/>
            </clipPath>
        </defs>
    </g>

    <g id="trashDelete">
        <g clip-path="url(#clip0_5661_2857)">
            <path d="M14 4.00011H10.6667V2.88677C10.651 2.45998 10.4668 2.05681 10.1544 1.76563C9.84197 1.47446 9.42684 1.31903 9.00001 1.33344H7.00001C6.57318 1.31903 6.15805 1.47446 5.84563 1.76563C5.53321 2.05681 5.34898 2.45998 5.33334 2.88677V4.00011H2.00001C1.8232 4.00011 1.65363 4.07034 1.52861 4.19537C1.40358 4.32039 1.33334 4.48996 1.33334 4.66677C1.33334 4.84358 1.40358 5.01315 1.52861 5.13818C1.65363 5.2632 1.8232 5.33344 2.00001 5.33344H2.66668V12.6668C2.66668 13.1972 2.87739 13.7059 3.25246 14.081C3.62754 14.4561 4.13624 14.6668 4.66668 14.6668H11.3333C11.8638 14.6668 12.3725 14.4561 12.7476 14.081C13.1226 13.7059 13.3333 13.1972 13.3333 12.6668V5.33344H14C14.1768 5.33344 14.3464 5.2632 14.4714 5.13818C14.5964 5.01315 14.6667 4.84358 14.6667 4.66677C14.6667 4.48996 14.5964 4.32039 14.4714 4.19537C14.3464 4.07034 14.1768 4.00011 14 4.00011ZM6.66668 2.88677C6.66668 2.78011 6.80668 2.66677 7.00001 2.66677H9.00001C9.19334 2.66677 9.33334 2.78011 9.33334 2.88677V4.00011H6.66668V2.88677ZM12 12.6668C12 12.8436 11.9298 13.0132 11.8047 13.1382C11.6797 13.2632 11.5102 13.3334 11.3333 13.3334H4.66668C4.48987 13.3334 4.3203 13.2632 4.19527 13.1382C4.07025 13.0132 4.00001 12.8436 4.00001 12.6668V5.33344H12V12.6668Z"
                  fill="white"/>
        </g>
        <defs>
            <clipPath id="clip0_5661_2857">
                <rect width="16" height="16" fill="white"/>
            </clipPath>
        </defs>
    </g>

    <g id="openedEye">
        <g clip-path="url(#clip0_5661_2355)">
            <path d="M18.225 9.58334C17.6917 8.65834 14.7583 4.01667 9.775 4.16667C5.16667 4.28334 2.5 8.33334 1.775 9.58334C1.70186 9.71002 1.66335 9.85372 1.66335 10C1.66335 10.1463 1.70186 10.29 1.775 10.4167C2.3 11.325 5.10833 15.8333 10.0167 15.8333H10.225C14.8333 15.7167 17.5083 11.6667 18.225 10.4167C18.2981 10.29 18.3366 10.1463 18.3366 10C18.3366 9.85372 18.2981 9.71002 18.225 9.58334ZM10.1833 14.1667C6.59167 14.25 4.25 11.175 3.51667 10C4.35 8.65834 6.525 5.91667 9.85833 5.83334C13.4333 5.74167 15.7833 8.82501 16.525 10C15.6667 11.3417 13.5167 14.0833 10.1833 14.1667Z"
                  fill="currentColor"/>
            <path d="M10 7.08334C9.42314 7.08334 8.85923 7.2544 8.37959 7.57489C7.89994 7.89538 7.52611 8.3509 7.30535 8.88385C7.0846 9.4168 7.02684 10.0032 7.13938 10.569C7.25192 11.1348 7.5297 11.6545 7.93761 12.0624C8.34551 12.4703 8.86521 12.7481 9.43099 12.8606C9.99676 12.9732 10.5832 12.9154 11.1162 12.6947C11.6491 12.4739 12.1046 12.1001 12.4251 11.6204C12.7456 11.1408 12.9167 10.5769 12.9167 10C12.9167 9.22646 12.6094 8.4846 12.0624 7.93762C11.5154 7.39063 10.7735 7.08334 10 7.08334ZM10 11.25C9.75277 11.25 9.5111 11.1767 9.30554 11.0393C9.09998 10.902 8.93976 10.7068 8.84515 10.4784C8.75054 10.25 8.72579 9.99862 8.77402 9.75615C8.82225 9.51367 8.9413 9.29094 9.11612 9.11613C9.29093 8.94131 9.51366 8.82226 9.75614 8.77403C9.99861 8.7258 10.2499 8.75055 10.4784 8.84516C10.7068 8.93977 10.902 9.09999 11.0393 9.30555C11.1767 9.51111 11.25 9.75278 11.25 10C11.25 10.3315 11.1183 10.6495 10.8839 10.8839C10.6495 11.1183 10.3315 11.25 10 11.25Z"
                  fill="currentColor"/>
        </g>
        <defs>
            <clipPath id="clip0_5661_2355">
                <rect width="20" height="20" fill="white"/>
            </clipPath>
        </defs>
    </g>
    <g id="search">
        <svg width="16" height="16" viewBox="0 0 16 16" fill="currentColor" xmlns="http://www.w3.org/2000/svg">
            <path d="M15.2583 14.075L12.425 11.25C13.3392 10.0854 13.8352 8.64721 13.8333 7.16667C13.8333 5.84813 13.4423 4.5592 12.7098 3.46287C11.9773 2.36654 10.9361 1.51206 9.71789 1.00747C8.49972 0.502889 7.15927 0.370866 5.86607 0.628101C4.57286 0.885336 3.38497 1.52027 2.45262 2.45262C1.52027 3.38497 0.885336 4.57286 0.628101 5.86607C0.370866 7.15927 0.502889 8.49972 1.00747 9.71789C1.51206 10.9361 2.36654 11.9773 3.46287 12.7098C4.5592 13.4423 5.84813 13.8333 7.16667 13.8333C8.64721 13.8352 10.0854 13.3392 11.25 12.425L14.075 15.2583C14.1525 15.3364 14.2446 15.3984 14.3462 15.4407C14.4477 15.4831 14.5567 15.5048 14.6667 15.5048C14.7767 15.5048 14.8856 15.4831 14.9871 15.4407C15.0887 15.3984 15.1809 15.3364 15.2583 15.2583C15.3364 15.1809 15.3984 15.0887 15.4407 14.9871C15.4831 14.8856 15.5048 14.7767 15.5048 14.6667C15.5048 14.5567 15.4831 14.4477 15.4407 14.3462C15.3984 14.2446 15.3364 14.1525 15.2583 14.075ZM2.16667 7.16667C2.16667 6.17776 2.45991 5.21106 3.00932 4.38882C3.55873 3.56657 4.33962 2.92571 5.25325 2.54727C6.16688 2.16883 7.17222 2.06982 8.14212 2.26274C9.11203 2.45567 10.0029 2.93187 10.7022 3.63114C11.4015 4.3304 11.8777 5.22131 12.0706 6.19122C12.2635 7.16112 12.1645 8.16646 11.7861 9.08009C11.4076 9.99372 10.7668 10.7746 9.94452 11.324C9.12227 11.8734 8.15558 12.1667 7.16667 12.1667C5.84059 12.1667 4.56882 11.6399 3.63114 10.7022C2.69345 9.76452 2.16667 8.49275 2.16667 7.16667Z"
                  fill="currentColor"/>
        </svg>

    </g>

    <g id="close">
        <path d="M13.4099 11.9999L17.7099 7.70994C17.8982 7.52164 18.004 7.26624 18.004 6.99994C18.004 6.73364 17.8982 6.47825 17.7099 6.28994C17.5216 6.10164 17.2662 5.99585 16.9999 5.99585C16.7336 5.99585 16.4782 6.10164 16.2899 6.28994L11.9999 10.5899L7.70994 6.28994C7.52164 6.10164 7.26624 5.99585 6.99994 5.99585C6.73364 5.99585 6.47824 6.10164 6.28994 6.28994C6.10164 6.47825 5.99585 6.73364 5.99585 6.99994C5.99585 7.26624 6.10164 7.52164 6.28994 7.70994L10.5899 11.9999L6.28994 16.2899C6.19621 16.3829 6.12182 16.4935 6.07105 16.6154C6.02028 16.7372 5.99414 16.8679 5.99414 16.9999C5.99414 17.132 6.02028 17.2627 6.07105 17.3845C6.12182 17.5064 6.19621 17.617 6.28994 17.7099C6.3829 17.8037 6.4935 17.8781 6.61536 17.9288C6.73722 17.9796 6.86793 18.0057 6.99994 18.0057C7.13195 18.0057 7.26266 17.9796 7.38452 17.9288C7.50638 17.8781 7.61698 17.8037 7.70994 17.7099L11.9999 13.4099L16.2899 17.7099C16.3829 17.8037 16.4935 17.8781 16.6154 17.9288C16.7372 17.9796 16.8679 18.0057 16.9999 18.0057C17.132 18.0057 17.2627 17.9796 17.3845 17.9288C17.5064 17.8781 17.617 17.8037 17.7099 17.7099C17.8037 17.617 17.8781 17.5064 17.9288 17.3845C17.9796 17.2627 18.0057 17.132 18.0057 16.9999C18.0057 16.8679 17.9796 16.7372 17.9288 16.6154C17.8781 16.4935 17.8037 16.3829 17.7099 16.2899L13.4099 11.9999Z"
              fill="white"/>
    </g>

    <g id="uploadImage">
        <g clip-path="url(#clip0_72762_3611)">
            <path d="M12.5 2H4.5C3.96957 2 3.46086 2.21071 3.08579 2.58579C2.71071 2.96086 2.5 3.46957 2.5 4V12C2.5 12.5304 2.71071 13.0391 3.08579 13.4142C3.46086 13.7893 3.96957 14 4.5 14H12.5C13.0304 14 13.5391 13.7893 13.9142 13.4142C14.2893 13.0391 14.5 12.5304 14.5 12V4C14.5 3.46957 14.2893 2.96086 13.9142 2.58579C13.5391 2.21071 13.0304 2 12.5 2ZM4.5 3.33333H12.5C12.6768 3.33333 12.8464 3.40357 12.9714 3.5286C13.0964 3.65362 13.1667 3.82319 13.1667 4V9.57333L11.0333 7.75333C10.7028 7.48136 10.288 7.33266 9.86 7.33266C9.43195 7.33266 9.0172 7.48136 8.68667 7.75333L3.83333 11.8V4C3.83333 3.82319 3.90357 3.65362 4.0286 3.5286C4.15362 3.40357 4.32319 3.33333 4.5 3.33333ZM12.5 12.6667H4.87333L9.54 8.77333C9.62965 8.70677 9.73834 8.67083 9.85 8.67083C9.96166 8.67083 10.0704 8.70677 10.16 8.77333L13.1667 11.3333V12C13.1667 12.1768 13.0964 12.3464 12.9714 12.4714C12.8464 12.5964 12.6768 12.6667 12.5 12.6667Z"
                  fill="white"/>
            <path d="M5.8335 6.66663C6.38578 6.66663 6.8335 6.21891 6.8335 5.66663C6.8335 5.11434 6.38578 4.66663 5.8335 4.66663C5.28121 4.66663 4.8335 5.11434 4.8335 5.66663C4.8335 6.21891 5.28121 6.66663 5.8335 6.66663Z"
                  fill="white"/>
        </g>
        <defs>
            <clipPath id="clip0_72762_3611">
                <rect width="16" height="16" fill="white" transform="translate(0.5)"/>
            </clipPath>
        </defs>
    </g>

    <g id="logout">
        <svg width="16" height="16" viewBox="0 0 16 16" fill="none" xmlns="http://www.w3.org/2000/svg">
            <path d="M4.66663 3.99996C4.84344 3.99996 5.01301 3.92972 5.13803 3.8047C5.26305 3.67967 5.33329 3.5101 5.33329 3.33329C5.33329 3.15648 5.26305 2.98691 5.13803 2.86189C5.01301 2.73686 4.84344 2.66663 4.66663 2.66663H3.33329C3.15648 2.66663 2.98691 2.73686 2.86189 2.86189C2.73686 2.98691 2.66663 3.15648 2.66663 3.33329V12.6666C2.66663 12.8434 2.73686 13.013 2.86189 13.138C2.98691 13.2631 3.15648 13.3333 3.33329 13.3333H4.66663C4.84344 13.3333 5.01301 13.2631 5.13803 13.138C5.26305 13.013 5.33329 12.8434 5.33329 12.6666C5.33329 12.4898 5.26305 12.3202 5.13803 12.1952C5.01301 12.0702 4.84344 12 4.66663 12H3.99996V3.99996H4.66663Z"
                  fill="white"/>
            <path d="M13.88 7.61338L12 4.94672C11.898 4.80299 11.7433 4.70548 11.5697 4.67549C11.396 4.64551 11.2176 4.6855 11.0733 4.78672C11.0012 4.83724 10.9399 4.90154 10.8927 4.97592C10.8456 5.05029 10.8137 5.13326 10.7988 5.22004C10.784 5.30681 10.7864 5.39568 10.8061 5.4815C10.8257 5.56732 10.8622 5.64839 10.9133 5.72005L12.06 7.33338H6.66667C6.48986 7.33338 6.32029 7.40362 6.19526 7.52864C6.07024 7.65367 6 7.82324 6 8.00005C6 8.17686 6.07024 8.34643 6.19526 8.47145C6.32029 8.59648 6.48986 8.66672 6.66667 8.66672H12L10.8 10.2667C10.7475 10.3368 10.7093 10.4165 10.6875 10.5013C10.6658 10.5861 10.661 10.6743 10.6734 10.761C10.6857 10.8477 10.7151 10.931 10.7597 11.0064C10.8043 11.0817 10.8633 11.1475 10.9333 11.2C11.0487 11.2866 11.1891 11.3334 11.3333 11.3334C11.4368 11.3334 11.5389 11.3093 11.6315 11.263C11.724 11.2167 11.8046 11.1495 11.8667 11.0667L13.8667 8.40005C13.952 8.28729 13.9994 8.15031 14.0018 8.00889C14.0041 7.86748 13.9615 7.72897 13.88 7.61338Z"
                  fill="white"/>
        </svg>
    </g>

    <g id="editOutline">
        <svg width="16" height="16" viewBox="0 0 16 16" fill="none" xmlns="http://www.w3.org/2000/svg">
            <g clip-path="url(#clip0_5918_2436)">
                <path d="M12.6666 13.3334H3.33329C3.15648 13.3334 2.98691 13.4036 2.86189 13.5286C2.73686 13.6537 2.66663 13.8232 2.66663 14C2.66663 14.1769 2.73686 14.3464 2.86189 14.4714C2.98691 14.5965 3.15648 14.6667 3.33329 14.6667H12.6666C12.8434 14.6667 13.013 14.5965 13.138 14.4714C13.2631 14.3464 13.3333 14.1769 13.3333 14C13.3333 13.8232 13.2631 13.6537 13.138 13.5286C13.013 13.4036 12.8434 13.3334 12.6666 13.3334Z"
                      fill="white"/>
                <path d="M3.33329 12H3.39329L6.17329 11.7467C6.47782 11.7163 6.76264 11.5821 6.97995 11.3667L12.98 5.36665C13.2128 5.12063 13.3387 4.79233 13.3299 4.45368C13.3212 4.11503 13.1786 3.79366 12.9333 3.55999L11.1066 1.73332C10.8682 1.50938 10.5558 1.38089 10.2288 1.37229C9.90187 1.36368 9.58314 1.47557 9.33329 1.68665L3.33329 7.68665C3.1178 7.90396 2.98362 8.18879 2.95329 8.49332L2.66662 11.2733C2.65764 11.371 2.67031 11.4694 2.70373 11.5616C2.73715 11.6538 2.79049 11.7374 2.85995 11.8067C2.92225 11.8684 2.99612 11.9173 3.07735 11.9505C3.15857 11.9837 3.24555 12.0005 3.33329 12ZM10.18 2.66665L12 4.48665L10.6666 5.78665L8.87995 3.99999L10.18 2.66665ZM4.24662 8.60665L7.99995 4.87999L9.79995 6.67999L6.06662 10.4133L4.06662 10.6L4.24662 8.60665Z"
                      fill="white"/>
            </g>
            <defs>
                <clipPath id="clip0_5918_2436">
                    <rect width="16" height="16" fill="white"/>
                </clipPath>
            </defs>
        </svg>
    </g>
    <g id="checkEmail">
        <path d="M95.5 48C95.5 74.2335 74.2335 95.5 48 95.5C21.7665 95.5 0.5 74.2335 0.5 48C0.5 21.7665 21.7665 0.5 48 0.5C74.2335 0.5 95.5 21.7665 95.5 48Z"
              fill="#8C61FF" fill-opacity="0.05" stroke="#BEA6FF"/>
        <path d="M77.8886 54.4543C77.7188 54.4521 77.5566 54.3836 77.4365 54.2635C77.3164 54.1435 77.2479 53.9812 77.2457 53.8114V44.5714C77.2457 44.4009 77.3135 44.2374 77.434 44.1169C77.5546 43.9963 77.7181 43.9286 77.8886 43.9286C78.0591 43.9286 78.2226 43.9963 78.3432 44.1169C78.4637 44.2374 78.5314 44.4009 78.5314 44.5714V53.82C78.5292 53.989 78.4605 54.1503 78.3402 54.269C78.2199 54.3877 78.0576 54.4543 77.8886 54.4543Z"
              fill="#BEA6FF"/>
        <path d="M77.8886 41.7772C77.7181 41.7772 77.5546 41.7094 77.434 41.5889C77.3135 41.4683 77.2457 41.3048 77.2457 41.1343V39.24C77.2457 39.0695 77.3135 38.906 77.434 38.7855C77.5546 38.6649 77.7181 38.5972 77.8886 38.5972C78.0591 38.5972 78.2226 38.6649 78.3432 38.7855C78.4637 38.906 78.5314 39.0695 78.5314 39.24V41.1429C78.5314 41.2269 78.5148 41.3101 78.4824 41.3876C78.45 41.4651 78.4024 41.5354 78.3426 41.5944C78.2828 41.6535 78.2119 41.7 78.1339 41.7314C78.056 41.7627 77.9726 41.7783 77.8886 41.7772Z"
              fill="#BEA6FF"/>
        <path d="M25.7863 32.5028H22.2274C21.859 32.5028 21.5601 32.2038 21.5601 31.8355C21.5601 31.4671 21.859 31.1682 22.2274 31.1682H25.7863C26.1547 31.1682 26.4536 31.4671 26.4536 31.8355C26.4536 32.2038 26.1547 32.5028 25.7863 32.5028Z"
              fill="#BEA6FF"/>
        <path d="M24.0073 34.2824C23.6389 34.2824 23.34 33.9834 23.34 33.6151V30.0561C23.34 29.6878 23.6389 29.3888 24.0073 29.3888C24.3756 29.3888 24.6746 29.6878 24.6746 30.0561V33.6151C24.6746 33.9834 24.3756 34.2824 24.0073 34.2824Z"
              fill="#BEA6FF"/>
        <path d="M36.8572 73.7143C37.3304 73.7143 37.7144 74.0983 37.7144 74.5714C37.7144 75.0446 37.3304 75.4286 36.8572 75.4286C36.3841 75.4286 36.0001 75.0446 36.0001 74.5714C36.0001 74.0983 36.3841 73.7143 36.8572 73.7143Z"
              fill="#BEA6FF"/>
        <path d="M31.7143 73.7143C32.1874 73.7143 32.5714 74.0983 32.5714 74.5714C32.5714 75.0446 32.1874 75.4286 31.7143 75.4286C31.2411 75.4286 30.8571 75.0446 30.8571 74.5714C30.8571 74.0983 31.2411 73.7143 31.7143 73.7143Z"
              fill="#BEA6FF"/>
        <path d="M26.5714 73.7143C27.0446 73.7143 27.4286 74.0983 27.4286 74.5714C27.4286 75.0446 27.0446 75.4286 26.5714 75.4286C26.0983 75.4286 25.7143 75.0446 25.7143 74.5714C25.7143 74.0983 26.0983 73.7143 26.5714 73.7143Z"
              fill="#BEA6FF"/>
        <path d="M47.8645 23.2418L23.7649 43.0406L47.8645 62.8486L71.9641 43.0406L47.8645 23.2418Z" fill="#333333"/>
        <path d="M47.8647 63.5436C47.7069 63.5303 47.5591 63.4613 47.4475 63.349L23.3479 43.541C23.2692 43.4753 23.2059 43.3931 23.1626 43.3002C23.1193 43.2072 23.0972 43.1059 23.0977 43.0033C23.099 42.9011 23.122 42.8004 23.1651 42.7077C23.2083 42.615 23.2706 42.5326 23.3479 42.4657L47.4475 22.667C47.575 22.553 47.74 22.4899 47.911 22.4899C48.082 22.4899 48.247 22.553 48.3745 22.667L72.4741 42.4657C72.5514 42.5326 72.6137 42.615 72.6569 42.7077C72.7 42.8004 72.723 42.9011 72.7243 43.0033C72.7248 43.1059 72.7027 43.2072 72.6594 43.3002C72.6161 43.3931 72.5528 43.4753 72.4741 43.541L48.3745 63.349C48.308 63.4155 48.2282 63.4673 48.1404 63.5008C48.0525 63.5343 47.9585 63.5489 47.8647 63.5436ZM24.8588 43.0404L47.8647 61.9493L70.8705 43.0404L47.8647 24.1408L24.8588 43.0404Z"
              fill="#BEA6FF"/>
        <path d="M65.0126 28.8032H30.717V69.5872H65.0126V28.8032Z" fill="#333333"/>
        <path d="M55.4098 40.853L43.6937 50.4836V69.5872H65.0126V40.853H55.4098Z" fill="#333333"/>
        <path d="M65.0588 70.2823H30.7632C30.5795 70.2799 30.4041 70.2059 30.2743 70.076C30.1444 69.9461 30.0704 69.7707 30.068 69.5871V28.8031C30.0728 28.622 30.1482 28.4499 30.2781 28.3235C30.4079 28.1971 30.582 28.1264 30.7632 28.1265H65.0588C65.2432 28.1265 65.42 28.1997 65.5504 28.3301C65.6807 28.4604 65.754 28.6373 65.754 28.8216V69.6056C65.7468 69.786 65.6708 69.9568 65.5414 70.0827C65.412 70.2086 65.2393 70.28 65.0588 70.2823ZM31.412 68.9104H64.3172V29.5168H31.412V68.9104Z"
              fill="#BEA6FF"/>
        <path d="M58.9875 35.0598H48.1705C47.9861 35.0598 47.8093 34.9865 47.679 34.8562C47.5486 34.7258 47.4753 34.549 47.4753 34.3646C47.4753 34.1802 47.5486 34.0034 47.679 33.873C47.8093 33.7427 47.9861 33.6694 48.1705 33.6694H58.9875C59.1719 33.6694 59.3487 33.7427 59.4791 33.873C59.6095 34.0034 59.6827 34.1802 59.6827 34.3646C59.6827 34.549 59.6095 34.7258 59.4791 34.8562C59.3487 34.9865 59.1719 35.0598 58.9875 35.0598Z"
              fill="#BEA6FF"/>
        <path d="M44.4628 35.0598H36.7417C36.5573 35.0598 36.3805 34.9865 36.2501 34.8562C36.1197 34.7258 36.0465 34.549 36.0465 34.3646C36.0465 34.1802 36.1197 34.0034 36.2501 33.873C36.3805 33.7427 36.5573 33.6694 36.7417 33.6694H44.4628C44.6472 33.6694 44.824 33.7427 44.9544 33.873C45.0848 34.0034 45.158 34.1802 45.158 34.3646C45.158 34.549 45.0848 34.7258 44.9544 34.8562C44.824 34.9865 44.6472 35.0598 44.4628 35.0598Z"
              fill="#BEA6FF"/>
        <path d="M58.9874 39.6944H51.878C51.6937 39.6944 51.5168 39.6211 51.3865 39.4907C51.2561 39.3604 51.1829 39.1836 51.1829 38.9992C51.1829 38.8148 51.2561 38.638 51.3865 38.5076C51.5168 38.3772 51.6937 38.304 51.878 38.304H58.9874C59.1718 38.304 59.3486 38.3772 59.479 38.5076C59.6094 38.638 59.6826 38.8148 59.6826 38.9992C59.6826 39.1836 59.6094 39.3604 59.479 39.4907C59.3486 39.6211 59.1718 39.6944 58.9874 39.6944Z"
              fill="#BEA6FF"/>
        <path d="M48.1705 39.6944H36.7417C36.5573 39.6944 36.3805 39.6211 36.2501 39.4907C36.1197 39.3604 36.0465 39.1836 36.0465 38.9992C36.0465 38.8148 36.1197 38.638 36.2501 38.5076C36.3805 38.3772 36.5573 38.304 36.7417 38.304H48.1705C48.3548 38.304 48.5317 38.3772 48.662 38.5076C48.7924 38.638 48.8657 38.8148 48.8657 38.9992C48.8657 39.1836 48.7924 39.3604 48.662 39.4907C48.5317 39.6211 48.3548 39.6944 48.1705 39.6944Z"
              fill="#BEA6FF"/>
        <path d="M58.9876 44.3289H46.3168C46.1324 44.3289 45.9556 44.2556 45.8252 44.1253C45.6948 43.9949 45.6216 43.8181 45.6216 43.6337C45.6216 43.4493 45.6948 43.2725 45.8252 43.1421C45.9556 43.0118 46.1324 42.9385 46.3168 42.9385H58.9876C59.172 42.9385 59.3488 43.0118 59.4792 43.1421C59.6095 43.2725 59.6828 43.4493 59.6828 43.6337C59.6828 43.8181 59.6095 43.9949 59.4792 44.1253C59.3488 44.2556 59.172 44.3289 58.9876 44.3289Z"
              fill="#BEA6FF"/>
        <path d="M42.609 44.3289H36.7417C36.5573 44.3289 36.3805 44.2556 36.2501 44.1253C36.1197 43.9949 36.0465 43.8181 36.0465 43.6337C36.0465 43.4493 36.1197 43.2725 36.2501 43.1421C36.3805 43.0118 36.5573 42.9385 36.7417 42.9385H42.609C42.7934 42.9385 42.9702 43.0118 43.1006 43.1421C43.231 43.2725 43.3042 43.4493 43.3042 43.6337C43.3042 43.8181 43.231 43.9949 43.1006 44.1253C42.9702 44.2556 42.7934 44.3289 42.609 44.3289Z"
              fill="#BEA6FF"/>
        <path d="M58.9875 48.9635H52.805C52.6207 48.9635 52.4438 48.8902 52.3135 48.7598C52.1831 48.6295 52.1099 48.4527 52.1099 48.2683C52.1099 48.0839 52.1831 47.9071 52.3135 47.7767C52.4438 47.6463 52.6207 47.5731 52.805 47.5731H58.9875C59.1719 47.5731 59.3487 47.6463 59.4791 47.7767C59.6095 47.9071 59.6827 48.0839 59.6827 48.2683C59.6827 48.4527 59.6095 48.6295 59.4791 48.7598C59.3487 48.8902 59.1719 48.9635 58.9875 48.9635Z"
              fill="#BEA6FF"/>
        <path d="M49.0974 48.9635H36.7417C36.5573 48.9635 36.3805 48.8902 36.2501 48.7598C36.1197 48.6295 36.0465 48.4527 36.0465 48.2683C36.0465 48.0839 36.1197 47.9071 36.2501 47.7767C36.3805 47.6463 36.5573 47.5731 36.7417 47.5731H49.0974C49.2818 47.5731 49.4586 47.6463 49.589 47.7767C49.7193 47.9071 49.7926 48.0839 49.7926 48.2683C49.7926 48.4527 49.7193 48.6295 49.589 48.7598C49.4586 48.8902 49.2818 48.9635 49.0974 48.9635Z"
              fill="#BEA6FF"/>
        <path d="M54.0472 53.598H41.6822C41.4979 53.598 41.321 53.5248 41.1907 53.3944C41.0603 53.264 40.9871 53.0872 40.9871 52.9028C40.9871 52.7185 41.0603 52.5416 41.1907 52.4113C41.321 52.2809 41.4979 52.2077 41.6822 52.2077H54.0472C54.2316 52.2077 54.4084 52.2809 54.5388 52.4113C54.6691 52.5416 54.7424 52.7185 54.7424 52.9028C54.7424 53.0872 54.6691 53.264 54.5388 53.3944C54.4084 53.5248 54.2316 53.598 54.0472 53.598Z"
              fill="#BEA6FF"/>
        <path d="M23.7649 43.0405V69.5871L39.9116 56.3138L23.7649 43.0405Z" fill="#333333"/>
        <path d="M55.8176 56.3138L71.9644 69.5871V43.0405L55.8176 56.3138Z" fill="#333333"/>
        <path d="M47.8645 62.8485L39.9116 56.3138L23.7649 69.5872H71.9641L55.8174 56.3138L47.8645 62.8485Z"
              fill="#333333"/>
        <path d="M28.3998 50.4927V65.7774L37.6967 58.1397L28.3998 50.4927Z" fill="#333333"/>
        <path d="M63.1958 57.8803L71.9643 65.0916V50.6782L63.1958 57.8803Z" fill="#333333"/>
        <path d="M23.7652 70.2823C23.662 70.2808 23.5604 70.2554 23.4686 70.2081C23.3499 70.1533 23.2493 70.0658 23.1787 69.9558C23.1081 69.8457 23.0704 69.7178 23.0701 69.5871V43.0404C23.0704 42.9097 23.1081 42.7818 23.1787 42.6718C23.2493 42.5617 23.3499 42.4742 23.4686 42.4194C23.5874 42.3614 23.7202 42.3384 23.8516 42.3532C23.9829 42.368 24.1073 42.4199 24.2102 42.5028L40.3569 55.7761C40.435 55.8423 40.4978 55.9246 40.5408 56.0175C40.5838 56.1103 40.6061 56.2114 40.6061 56.3138C40.6061 56.4161 40.5838 56.5172 40.5408 56.61C40.4978 56.7029 40.435 56.7852 40.3569 56.8514L24.2102 70.1154C24.0865 70.2223 23.9287 70.2814 23.7652 70.2823ZM24.4604 44.5142V68.1133L38.8182 56.3138L24.4604 44.5142Z"
              fill="#BEA6FF"/>
        <path d="M60.4244 60.0954L50.2747 68.4376L43.1931 62.6166L34.7212 69.587H71.9644L60.4244 60.0954Z"
              fill="#333333"/>
        <path d="M71.9644 70.2823C71.801 70.2814 71.6432 70.2223 71.5195 70.1154L55.3728 56.8606C55.2947 56.7945 55.2319 56.7122 55.1889 56.6193C55.1458 56.5265 55.1235 56.4254 55.1235 56.323C55.1235 56.2207 55.1458 56.1196 55.1889 56.0267C55.2319 55.9339 55.2947 55.8515 55.3728 55.7854L71.5473 42.5028C71.6502 42.4199 71.7746 42.368 71.9059 42.3532C72.0373 42.3384 72.1701 42.3614 72.2888 42.4194C72.4075 42.4742 72.5081 42.5617 72.5788 42.6718C72.6494 42.7818 72.6871 42.9097 72.6874 43.0404V69.5871C72.6871 69.7178 72.6494 69.8457 72.5788 69.9558C72.5081 70.0658 72.4075 70.1533 72.2888 70.2081C72.1887 70.2598 72.0771 70.2853 71.9644 70.2823ZM56.9114 56.3138L71.2692 68.1133V44.5142L56.9114 56.3138Z"
              fill="#BEA6FF"/>
        <path d="M71.9642 70.2823H23.7649C23.621 70.2816 23.4808 70.2367 23.3632 70.1539C23.2455 70.071 23.1561 69.9541 23.1069 69.8189C23.0604 69.6841 23.0559 69.5384 23.0939 69.4011C23.132 69.2637 23.2108 69.1411 23.32 69.0495L39.4668 55.7762C39.5942 55.6622 39.7592 55.5992 39.9302 55.5992C40.1012 55.5992 40.2662 55.6622 40.3937 55.7762L47.9017 61.9494L55.4096 55.7762C55.5371 55.6622 55.7021 55.5992 55.8731 55.5992C56.0441 55.5992 56.2091 55.6622 56.3365 55.7762L72.4833 69.0495C72.5924 69.1411 72.6713 69.2637 72.7094 69.4011C72.7474 69.5384 72.7429 69.6841 72.6965 69.8189C72.6435 69.9667 72.5427 70.0926 72.41 70.1765C72.2774 70.2605 72.1204 70.2977 71.9642 70.2823ZM25.7022 68.9105H70.027L55.7896 57.2129L48.2817 63.3861C48.1542 63.5001 47.9892 63.5632 47.8182 63.5632C47.6472 63.5632 47.4822 63.5001 47.3548 63.3861L39.8468 57.2129L25.7022 68.9105Z"
              fill="#BEA6FF"/>
        <path d="M46.3576 75.3599H42.7987C42.4303 75.3599 42.1313 75.061 42.1313 74.6926C42.1313 74.3243 42.4303 74.0253 42.7987 74.0253H46.3576C46.7259 74.0253 47.0249 74.3243 47.0249 74.6926C47.0249 75.061 46.7259 75.3599 46.3576 75.3599Z"
              fill="#BEA6FF"/>
        <path d="M44.5788 77.1395C44.2105 77.1395 43.9115 76.8406 43.9115 76.4722V72.9133C43.9115 72.5449 44.2105 72.246 44.5788 72.246C44.9472 72.246 45.2461 72.5449 45.2461 72.9133V76.4722C45.2461 76.8406 44.9472 77.1395 44.5788 77.1395Z"
              fill="#BEA6FF"/>
    </g>

    <g id="layer2">
        <path d="M7.99998 7.33431C8.5274 7.33431 9.04297 7.17791 9.4815 6.8849C9.92003 6.59188 10.2618 6.1754 10.4637 5.68813C10.6655 5.20086 10.7183 4.66469 10.6154 4.1474C10.5125 3.63012 10.2585 3.15497 9.8856 2.78203C9.51266 2.40909 9.0375 2.15511 8.52022 2.05222C8.00294 1.94932 7.46676 2.00213 6.97949 2.20397C6.49222 2.4058 6.07574 2.74759 5.78273 3.18612C5.48971 3.62465 5.33331 4.14023 5.33331 4.66764C5.33331 5.37489 5.61426 6.05317 6.11436 6.55326C6.61446 7.05336 7.29274 7.33431 7.99998 7.33431ZM7.99998 3.33431C8.26369 3.33431 8.52147 3.41251 8.74074 3.55902C8.96001 3.70553 9.1309 3.91376 9.23182 4.1574C9.33274 4.40103 9.35914 4.66912 9.30769 4.92776C9.25625 5.18641 9.12926 5.42398 8.94279 5.61045C8.75632 5.79692 8.51874 5.92391 8.2601 5.97536C8.00146 6.0268 7.73337 6.0004 7.48974 5.89948C7.2461 5.79857 7.03786 5.62767 6.89135 5.4084C6.74485 5.18914 6.66665 4.93135 6.66665 4.66764C6.66665 4.31402 6.80712 3.97488 7.05717 3.72484C7.30722 3.47479 7.64636 3.33431 7.99998 3.33431Z"
              fill="white"/>
        <path d="M7.99998 8.66748C6.7623 8.66748 5.57532 9.15915 4.70015 10.0343C3.82498 10.9095 3.33331 12.0965 3.33331 13.3341C3.33331 13.511 3.40355 13.6805 3.52858 13.8056C3.6536 13.9306 3.82317 14.0008 3.99998 14.0008C4.17679 14.0008 4.34636 13.9306 4.47138 13.8056C4.59641 13.6805 4.66665 13.511 4.66665 13.3341C4.66665 12.4501 5.01784 11.6022 5.64296 10.9771C6.26808 10.352 7.11592 10.0008 7.99998 10.0008C8.88403 10.0008 9.73188 10.352 10.357 10.9771C10.9821 11.6022 11.3333 12.4501 11.3333 13.3341C11.3333 13.511 11.4036 13.6805 11.5286 13.8056C11.6536 13.9306 11.8232 14.0008 12 14.0008C12.1768 14.0008 12.3464 13.9306 12.4714 13.8056C12.5964 13.6805 12.6666 13.511 12.6666 13.3341C12.6666 12.0965 12.175 10.9095 11.2998 10.0343C10.4246 9.15915 9.23766 8.66748 7.99998 8.66748Z"
              fill="white"/>
    </g>

    <g id="layer1">
        <path d="M4.66669 4.00081C4.8435 4.00081 5.01307 3.93058 5.13809 3.80555C5.26312 3.68053 5.33335 3.51096 5.33335 3.33415C5.33335 3.15734 5.26312 2.98777 5.13809 2.86274C5.01307 2.73772 4.8435 2.66748 4.66669 2.66748H3.33335C3.15654 2.66748 2.98697 2.73772 2.86195 2.86274C2.73693 2.98777 2.66669 3.15734 2.66669 3.33415V12.6675C2.66669 12.8443 2.73693 13.0139 2.86195 13.1389C2.98697 13.2639 3.15654 13.3341 3.33335 13.3341H4.66669C4.8435 13.3341 5.01307 13.2639 5.13809 13.1389C5.26312 13.0139 5.33335 12.8443 5.33335 12.6675C5.33335 12.4907 5.26312 12.3211 5.13809 12.1961C5.01307 12.0711 4.8435 12.0008 4.66669 12.0008H4.00002V4.00081H4.66669Z"
              fill="white"/>
        <path d="M13.88 7.61411L12 4.94745C11.898 4.80372 11.7433 4.70621 11.5697 4.67623C11.396 4.64625 11.2176 4.68623 11.0733 4.78745C11.0012 4.83797 10.9399 4.90228 10.8927 4.97665C10.8456 5.05103 10.8137 5.134 10.7988 5.22077C10.784 5.30755 10.7864 5.39641 10.8061 5.48223C10.8257 5.56805 10.8622 5.64913 10.9133 5.72078L12.06 7.33411H6.66667C6.48986 7.33411 6.32029 7.40435 6.19526 7.52938C6.07024 7.6544 6 7.82397 6 8.00078C6 8.17759 6.07024 8.34716 6.19526 8.47219C6.32029 8.59721 6.48986 8.66745 6.66667 8.66745H12L10.8 10.2674C10.7475 10.3375 10.7093 10.4172 10.6875 10.502C10.6658 10.5868 10.661 10.6751 10.6734 10.7617C10.6857 10.8484 10.7151 10.9318 10.7597 11.0071C10.8043 11.0824 10.8633 11.1483 10.9333 11.2008C11.0487 11.2873 11.1891 11.3341 11.3333 11.3341C11.4368 11.3341 11.5389 11.31 11.6315 11.2637C11.724 11.2174 11.8046 11.1502 11.8667 11.0674L13.8667 8.40078C13.952 8.28803 13.9994 8.15104 14.0018 8.00962C14.0041 7.86821 13.9615 7.7297 13.88 7.61411Z"
              fill="white"/>
    </g>

    <g id="vector">
        <path d="M7.40994 5.99994L11.7099 1.70994C11.8982 1.52164 12.004 1.26624 12.004 0.999941C12.004 0.73364 11.8982 0.478245 11.7099 0.289941C11.5216 0.101638 11.2662 -0.00415039 10.9999 -0.00415039C10.7336 -0.00415039 10.4782 0.101638 10.2899 0.289941L5.99994 4.58994L1.70994 0.289941C1.52164 0.101638 1.26624 -0.00415039 0.999939 -0.00415039C0.733637 -0.00415039 0.478243 0.101638 0.289939 0.289941C0.101635 0.478245 -0.00415277 0.73364 -0.00415277 0.999941C-0.00415278 1.26624 0.101635 1.52164 0.289939 1.70994L4.58994 5.99994L0.289939 10.2899C0.196211 10.3829 0.121816 10.4935 0.0710478 10.6154C0.0202791 10.7372 -0.00585938 10.8679 -0.00585938 10.9999C-0.00585938 11.132 0.0202791 11.2627 0.0710478 11.3845C0.121816 11.5064 0.196211 11.617 0.289939 11.7099C0.382902 11.8037 0.493503 11.8781 0.615362 11.9288C0.737221 11.9796 0.867927 12.0057 0.999939 12.0057C1.13195 12.0057 1.26266 11.9796 1.38452 11.9288C1.50638 11.8781 1.61698 11.8037 1.70994 11.7099L5.99994 7.40994L10.2899 11.7099C10.3829 11.8037 10.4935 11.8781 10.6154 11.9288C10.7372 11.9796 10.8679 12.0057 10.9999 12.0057C11.132 12.0057 11.2627 11.9796 11.3845 11.9288C11.5064 11.8781 11.617 11.8037 11.7099 11.7099C11.8037 11.617 11.8781 11.5064 11.9288 11.3845C11.9796 11.2627 12.0057 11.132 12.0057 10.9999C12.0057 10.8679 11.9796 10.7372 11.9288 10.6154C11.8781 10.4935 11.8037 10.3829 11.7099 10.2899L7.40994 5.99994Z"
              fill="white"/>
    </g>
    <g id="unKnown">
        <path d='M12.667 13.335H3.333a.667.667 0 1 0 0 1.333h9.334a.666.666 0 1 0 0-1.333ZM3.333 12.001h.06l2.78-.253c.305-.03.59-.165.807-.38l6-6a1.28 1.28 0 0 0-.047-1.807l-1.826-1.826a1.333 1.333 0 0 0-1.774-.047l-6 6c-.215.217-.35.502-.38.807l-.286 2.78a.667.667 0 0 0 .666.726Zm6.847-9.333L12 4.488l-1.333 1.3L8.88 4l1.3-1.333Zm-5.933 5.94L8 4.88l1.8 1.8-3.733 3.734-2 .186.18-1.993Z'/>
    </g>
    <g id="ArrowDown">
        <path d="M0.676105 1.30553C0.675801 1.14977 0.730051 0.998809 0.829438 0.878868C0.885405 0.811362 0.954139 0.755561 1.0317 0.71466C1.10927 0.673759 1.19414 0.648561 1.28146 0.640511C1.36877 0.63246 1.45682 0.641715 1.54056 0.667744C1.62429 0.693774 1.70207 0.736067 1.76944 0.792201L5.34277 3.77887L8.92277 0.898869C8.99096 0.843492 9.06943 0.802137 9.15365 0.777183C9.23788 0.752228 9.32621 0.744166 9.41356 0.753458C9.50091 0.762751 9.58557 0.789216 9.66266 0.831332C9.73975 0.873447 9.80776 0.930384 9.86277 0.998869C9.92346 1.06785 9.96924 1.14862 9.99723 1.23613C10.0252 1.32364 10.0348 1.41599 10.0254 1.50738C10.016 1.59878 9.98787 1.68725 9.94267 1.76724C9.89747 1.84722 9.83622 1.91701 9.76277 1.9722L5.76277 5.1922C5.64348 5.29026 5.49385 5.34386 5.33944 5.34386C5.18502 5.34386 5.03539 5.29026 4.91611 5.1922L0.916105 1.85887C0.835427 1.79199 0.771651 1.70703 0.729952 1.61089C0.688253 1.51475 0.669805 1.41014 0.676105 1.30553Z" fill="white"/>

    </g>

</svg>